<?xml version="1.0" standalone="no"?>
<!DOCTYPE svg PUBLIC "-//W3C//DTD SVG 20010904//EN"
 "http://www.w3.org/TR/2001/REC-SVG-20010904/DTD/svg10.dtd">
<svg version="1.0" xmlns="http://www.w3.org/2000/svg"
 width="3682.000000pt" height="2609.000000pt" viewBox="0 0 3682.000000 2609.000000"
 preserveAspectRatio="xMidYMid meet">

<g transform="translate(0.000000,2609.000000) scale(0.100000,-0.100000)"
fill="#000000" stroke="none">
<path d="M23130 26084 c-916 -28 -1639 -89 -2445 -205 -279 -40 -603 -94 -610
-101 -3 -3 12 -160 34 -349 213 -1820 329 -3403 392 -5349 17 -533 23 -2074
10 -2670 -65 -3062 -289 -4801 -858 -6660 -78 -255 -445 -1343 -580 -1720
-368 -1027 -635 -1513 -1068 -1945 -426 -426 -905 -697 -1490 -844 -448 -112
-860 -159 -2090 -236 -1227 -77 -1904 -134 -2720 -231 -1991 -234 -4389 -695
-5220 -1004 -348 -129 -460 -251 -305 -330 188 -96 976 -160 2725 -220 1436
-49 4359 -109 6895 -140 1181 -15 1917 -28 2235 -42 364 -15 1971 -15 2405 0
2560 90 4530 338 6245 788 2112 554 3345 985 4540 1589 1416 715 2537 1582
3427 2651 1211 1456 1945 3266 2123 5239 28 313 36 468 42 835 27 1647 -317
3401 -931 4752 -448 987 -1063 1923 -1776 2703 -160 175 -556 566 -715 706
-991 871 -2018 1442 -3295 1832 -799 244 -1560 405 -3215 681 -958 160 -1447
214 -2290 256 -207 10 -1260 20 -1465 14z m1100 -1664 c796 -34 1639 -159
2405 -355 1478 -378 2772 -1060 3859 -2034 992 -888 1870 -2234 2301 -3525
504 -1512 624 -3260 329 -4771 -276 -1416 -900 -2716 -1849 -3855 -1037 -1244
-2376 -2193 -4030 -2858 -793 -318 -1675 -572 -2700 -777 -1179 -236 -2336
-305 -3555 -214 -291 21 -929 95 -1012 117 l-27 7 51 80 c416 649 911 1591
1248 2375 487 1131 855 2331 1059 3445 191 1044 303 2296 361 4025 76 2273 3
4664 -215 7040 -34 370 -95 974 -114 1130 -6 41 -9 75 -8 76 1 1 76 12 167 23
554 69 1185 95 1730 71z"/>
<path d="M18698 25385 c-133 -50 -315 -239 -608 -630 -195 -261 -365 -502
-940 -1340 -1252 -1822 -2064 -2930 -3069 -4190 -836 -1048 -2427 -2923 -4296
-5065 -1256 -1440 -1671 -1935 -2611 -3120 -2558 -3222 -5219 -6917 -6436
-8936 -520 -862 -770 -1410 -729 -1595 37 -163 230 -116 609 148 779 543 2564
2254 4803 4603 2303 2417 3961 4401 8345 9980 1830 2329 2464 3204 3299 4555
559 905 1074 2035 1458 3200 365 1110 519 1997 395 2286 -30 71 -77 111 -135
115 -26 2 -65 -3 -85 -11z"/>
<path d="M19925 2915 c-696 -113 -1216 -599 -1321 -1234 -20 -125 -15 -373 11
-491 39 -175 108 -337 212 -494 88 -133 273 -319 403 -405 419 -279 917 -359
1403 -227 541 148 958 556 1091 1068 186 717 -252 1461 -1005 1712 -185 62
-281 77 -504 82 -143 2 -225 -1 -290 -11z"/>
</g>
</svg>
