<?xml version="1.0" encoding="utf-8"?>
<!-- Generator: Adobe Illustrator 26.0.1, SVG Export Plug-In . SVG Version: 6.00 Build 0)  -->
<svg version="1.1" id="Layer_1" xmlns="http://www.w3.org/2000/svg" xmlns:xlink="http://www.w3.org/1999/xlink" x="0px" y="0px"
	 viewBox="0 0 800 800" style="enable-background:new 0 0 800 800;" xml:space="preserve">
<style type="text/css">
	.st0{fill:#231F20;}
</style>
<path class="st0" d="M474,100c-96,0.33-192,0.67-288,1c-7.56,0.7-35.7,4.23-59,28c-24.82,25.32-26.74,55.86-27,63
	c-0.33,138.67-0.67,277.33-1,416c0.38,7.92,2.75,36.96,26,62c25.44,27.39,57.76,30.49,65,31c93.67-0.33,187.33-0.67,281-1
	c15.81-2.53,27.73-15.21,29-30c1.46-17.02-11.5-33.41-30-36c-92-0.33-184-0.67-276-1c-3.47-1.07-12.23-4.27-19-13
	c-4.47-5.76-6.24-11.56-7-15c-0.33-136.67-0.67-273.33-1-410c-0.17-1.59-1.12-12.39,7-21c9.13-9.68,21.76-8.17,23-8
	c92.47,0.36,184.95,0.73,277.42,1.09c13.35-5.35,22.35-17.94,22.91-32.02C497.93,119.85,488.55,105.66,474,100z"/>
<path class="st0" d="M330,366c97.33-0.33,194.67-0.67,292-1c-16.67-15.67-33.33-31.33-50-47c-9.74-15.11-6.23-34.88,7-45
	c11.65-8.91,28.71-8.7,41,1c34.67,33.67,69.33,67.33,104,101c2.01,2.08,7.85,8.68,9,19c1.45,12.94-5.53,22.15-7,24
	c-34.67,35-69.33,70-104,105c-11.93,11.27-30.65,11.68-43,1c-12.46-10.77-14.67-29.56-5-43c15.67-15.67,31.33-31.33,47-47
	c-97.33-0.33-194.67-0.67-292-1c-18.23-2.42-31.3-18.62-30-36C300.19,381.03,313.25,367.65,330,366z"/>
</svg>
