<?xml version="1.0" encoding="utf-8"?>
<!-- Generator: Adobe Illustrator 26.0.1, SVG Export Plug-In . SVG Version: 6.00 Build 0)  -->
<svg version="1.1" id="Layer_1" xmlns="http://www.w3.org/2000/svg" xmlns:xlink="http://www.w3.org/1999/xlink" x="0px" y="0px"
	 viewBox="0 0 612 612" style="enable-background:new 0 0 612 612;" xml:space="preserve">
<style type="text/css">
	.st0{stroke:#000000;stroke-miterlimit:10;}
</style>
<path class="st0" d="M388.93,267.26c-51.33-52.7-55.74-116.05-56.39-130.89c-2.84,18.76-13.96,76.27-63.42,125.35
	c-51.13,50.74-110.56,60.03-128.87,62.17c15.79,1.11,78.18,7.38,129.65,59.9c55.65,56.77,58.29,126.53,58.52,141.18
	c0.99-16.13,7.03-85.74,64.42-141.18c49.51-47.83,106.89-55.79,124.84-57.56C503.07,325.37,440.37,320.08,388.93,267.26z
	 M365.44,356.03c-17.56,17.08-27.83,34.74-33.59,46.68c-8.84-12.99-21.1-28.6-37.67-44.3c-16.89-16.01-33.4-27.53-46.98-35.67
	c12.75-6.88,30.42-18.27,47.77-36.46c15.69-16.46,25.78-32.87,32.11-45.18c6.8,13.22,17.84,31.19,35.24,49.14
	c16.75,17.28,33.6,28.56,46.2,35.67C397.2,331.36,381.27,340.63,365.44,356.03z"/>
<path class="st0" d="M225.73,135.99c-26.31-25.93-33.77-56.47-35.97-67.67c-2.18,11.15-9.15,39.29-32.82,64.37
	c-24.32,25.78-52.03,33.23-62.63,35.5c9.94,1.42,36.74,6.65,60.73,29.87c27.88,26.98,33.43,60.31,34.71,70
	c1.29-9.88,6.44-39.95,30.92-66.03c25.34-27,55.24-32.51,64.52-33.84C274.23,165.84,248.88,158.8,225.73,135.99z M208.83,186.41
	c-10.41,11.34-15.65,22.9-18.25,29.97c-3.1-7.43-8.86-18.77-19.34-29.97c-10.66-11.39-21.74-17.88-28.97-21.4
	c7.28-3.42,18.27-9.66,28.97-20.61c10.3-10.54,16.25-21.28,19.58-28.53c2.34,6.83,7.36,18.68,18.01,30.12
	c10.47,11.26,21.64,17.02,28.19,19.82C230.24,168.94,219.23,175.08,208.83,186.41z"/>
</svg>
